<?xml version="1.0" encoding="UTF-8"?>
<svg width="20px" height="12px" viewBox="0 0 20 12" version="1.1" xmlns="http://www.w3.org/2000/svg" xmlns:xlink="http://www.w3.org/1999/xlink">
    <!-- Generator: sketchtool 40 (33762) - http://www.bohemiancoding.com/sketch -->
    <title>92537B78-5B2E-4022-A463-E564BA2DAF62</title>
    <desc>Created with sketchtool.</desc>
    <defs></defs>
    <g id="Site" stroke="none" stroke-width="1" fill="none" fill-rule="evenodd">
        <g id="Faq" transform="translate(-1055.000000, -462.000000)" fill="#FFFFFF">
            <g id="Group-2" transform="translate(335.000000, 420.000000)">
                <g id="angle-down" transform="translate(730.000000, 48.000000) scale(1, -1) translate(-730.000000, -48.000000) translate(720.000000, 42.000000)">
                    <path d="M19.7600002,1.64336677 C19.7600002,1.81496413 19.6940011,1.9667608 19.5620039,2.09875796 L10.3353913,11.3253706 C10.2033941,11.4573677 10.0515963,11.5233669 9.88000011,11.5233669 C9.70840393,11.5233669 9.55660726,11.4573677 9.42460892,11.3253706 L0.197996324,2.09875796 C0.0659991688,1.9667608 0,1.81496413 0,1.64336677 C0,1.47177058 0.0659991688,1.31997391 0.197996324,1.18797676 L1.18797676,0.197996324 C1.31997391,0.0659991688 1.47177058,0 1.64336677,0 C1.81496413,0 1.9667608,0.0659991688 2.09875796,0.197996324 L9.88000011,7.97923848 L17.6612423,0.197996324 C17.7932394,0.0659991688 17.9450373,0 18.1166335,0 C18.2882296,0 18.4400263,0.0659991688 18.5720247,0.197996324 L19.5620039,1.18797676 C19.6940011,1.31997391 19.7600002,1.47177058 19.7600002,1.64336677 L19.7600002,1.64336677 Z" id="Shape"></path>
                </g>
            </g>
        </g>
    </g>
</svg>