<?xml version="1.0" encoding="UTF-8"?>
<svg width="8px" height="14px" viewBox="0 0 8 14" version="1.1" xmlns="http://www.w3.org/2000/svg" xmlns:xlink="http://www.w3.org/1999/xlink">
    <!-- Generator: Sketch 39.1 (31720) - http://www.bohemiancoding.com/sketch -->
    <title>angle right</title>
    <desc>Created with Sketch.</desc>
    <defs></defs>
    <g id="Page-1" stroke="none" stroke-width="1" fill="none" fill-rule="evenodd">
        <g id="Services" transform="translate(-1279.000000, -1785.000000)" fill="#FFFFFF">
            <g id="Group" transform="translate(1035.000000, 1774.000000)">
                <g id="Group-8">
                    <g id="Group-4" transform="translate(225.000000, 0.000000)">
                        <g id="angle-right" transform="translate(19.000000, 11.000000)">
                            <path d="M7.95763377,6.93194436 C7.95763377,7.04720186 7.91330354,7.14916044 7.82464386,7.23782012 L1.62732496,13.4351398 C1.53866449,13.5237995 1.43670591,13.5681289 1.32144841,13.5681289 C1.20619091,13.5681289 1.10423153,13.5237995 1.01557186,13.4351398 L0.350623908,12.7701911 C0.261964234,12.6815314 0.217634,12.5795728 0.217634,12.4643145 C0.217634,12.349057 0.261964234,12.2470984 0.350623908,12.1584388 L5.57711831,6.93194436 L0.350623908,1.70544916 C0.261964234,1.61678949 0.217634,1.51483091 0.217634,1.39957341 C0.217634,1.28431591 0.261964234,1.18235653 0.350623908,1.09369686 L1.01557186,0.428748908 C1.10423153,0.34008844 1.20619091,0.295759 1.32144841,0.295759 C1.43670591,0.295759 1.53866449,0.34008844 1.62732496,0.428748908 L7.82464386,6.62606781 C7.91330354,6.71472749 7.95763377,6.81668607 7.95763377,6.93194436 L7.95763377,6.93194436 Z" id="Shape"></path>
                        </g>
                    </g>
                </g>
            </g>
        </g>
    </g>
</svg>