<?xml version="1.0" encoding="UTF-8"?>
<svg width="9px" height="16px" viewBox="0 0 9 16" version="1.1" xmlns="http://www.w3.org/2000/svg" xmlns:xlink="http://www.w3.org/1999/xlink">
    <!-- Generator: Sketch 39.1 (31720) - http://www.bohemiancoding.com/sketch -->
    <title>facebook f</title>
    <desc>Created with Sketch.</desc>
    <defs></defs>
    <g id="Page-1" stroke="none" stroke-width="1" fill="none" fill-rule="evenodd">
        <g id="Services" transform="translate(-1249.000000, -1664.000000)" fill="#FFFFFF">
            <g id="Group-9" transform="translate(1241.000000, 1660.000000)">
                <g id="facebook-f" transform="translate(7.800000, 3.900000)">
                    <path d="M8.5623538,0.35800765 L8.5623538,2.87167961 L7.06748031,2.87167961 C6.52158211,2.87167961 6.15341772,2.9859375 5.96298828,3.21445329 C5.77255884,3.44296851 5.67734383,3.78574219 5.67734383,4.24277319 L5.67734383,6.04233403 L8.46713879,6.04233403 L8.09580078,8.86069332 L5.67734383,8.86069332 L5.67734383,16.0874998 L2.76376953,16.0874998 L2.76376953,8.86069332 L0.335791137,8.86069332 L0.335791137,6.04233403 L2.76376953,6.04233403 L2.76376953,3.96665019 C2.76376953,2.78598661 3.09384757,1.87033665 3.75400366,1.21970201 C4.41416032,0.569067363 5.29331075,0.243749756 6.39145496,0.243749756 C7.32456042,0.243749756 8.04819356,0.2818361 8.5623538,0.35800765 L8.5623538,0.35800765 Z" id="Shape"></path>
                </g>
            </g>
        </g>
    </g>
</svg>