<?xml version="1.0" encoding="UTF-8"?>
<svg width="22px" height="14px" viewBox="0 0 22 14" version="1.1" xmlns="http://www.w3.org/2000/svg" xmlns:xlink="http://www.w3.org/1999/xlink">
    <!-- Generator: Sketch 39.1 (31720) - http://www.bohemiancoding.com/sketch -->
    <title>google plus</title>
    <desc>Created with Sketch.</desc>
    <defs></defs>
    <g id="Page-1" stroke="none" stroke-width="1" fill="none" fill-rule="evenodd">
        <g id="Services" transform="translate(-1281.000000, -1666.000000)" fill="#FFFFFF">
            <g id="Group-9" transform="translate(1279.000000, 1660.000000)">
                <g id="google-plus" transform="translate(2.600000, 6.500000)">
                    <path d="M12.8303573,6.9482144 C12.8303573,8.18630933 12.5714288,9.28898827 12.0535712,10.2562501 C11.5357141,11.223512 10.7976192,11.9794645 9.83928587,12.5241072 C8.88095253,13.0687499 7.78273813,13.3410715 6.54464267,13.3410715 C5.65773813,13.3410715 4.80952373,13.1684523 4,12.8232144 C3.19047627,12.477976 2.49404747,12.0136907 1.91071413,11.4303573 C1.3273808,10.847024 0.863095467,10.1505952 0.517857067,9.34107147 C0.1726192,8.53154773 0,7.68333333 0,6.7964288 C0,5.90952373 0.1726192,5.06130933 0.517857067,4.2517856 C0.863095467,3.44226187 1.3273808,2.7458336 1.91071413,2.16250027 C2.49404747,1.57916693 3.19047627,1.11488107 4,0.769642667 C4.80952373,0.4244048 5.65773813,0.2517856 6.54464267,0.2517856 C8.247024,0.2517856 9.70833333,0.8232144 10.9285712,1.96607147 L9.1517856,3.6714288 C8.45535733,2.9988096 7.58630933,2.66250027 6.54464267,2.66250027 C5.81250027,2.66250027 5.13541653,2.847024 4.51339307,3.21607147 C3.89136907,3.58511893 3.3988096,4.08660693 3.03571413,4.72053547 C2.6726192,5.35446453 2.49107147,6.0464288 2.49107147,6.7964288 C2.49107147,7.5464288 2.6726192,8.23839307 3.03571413,8.8723216 C3.3988096,9.50625013 3.89136907,10.0077381 4.51339307,10.3767856 C5.13541653,10.7458336 5.81250027,10.9303573 6.54464267,10.9303573 C7.03869067,10.9303573 7.49255947,10.8619045 7.90625013,10.725 C8.31994027,10.5880955 8.66071413,10.4169643 8.9285712,10.2116069 C9.1964288,10.0062501 9.43005973,9.7726192 9.62946453,9.51071413 C9.8288688,9.2488096 9.9747024,9.0017856 10.0669643,8.76964267 C10.1592261,8.53750027 10.2232144,8.31726187 10.2589285,8.10892853 L6.54464267,8.10892853 L6.54464267,5.85892853 L12.7232144,5.85892853 C12.7946427,6.23392853 12.8303573,6.597024 12.8303573,6.9482144 L12.8303573,6.9482144 Z M20.5714288,5.85892853 L20.5714288,7.73392853 L18.7053573,7.73392853 L18.7053573,9.6 L16.8303573,9.6 L16.8303573,7.73392853 L14.9642859,7.73392853 L14.9642859,5.85892853 L16.8303573,5.85892853 L16.8303573,3.99285707 L18.7053573,3.99285707 L18.7053573,5.85892853 L20.5714288,5.85892853 Z" id="Shape"></path>
                </g>
            </g>
        </g>
    </g>
</svg>