<?xml version="1.0" encoding="UTF-8"?>
<svg width="12px" height="15px" viewBox="0 0 12 15" version="1.1" xmlns="http://www.w3.org/2000/svg" xmlns:xlink="http://www.w3.org/1999/xlink">
    <!-- Generator: sketchtool 40 (33762) - http://www.bohemiancoding.com/sketch -->
    <title>E2E33569-6714-4B3B-9CAA-993249424E27</title>
    <desc>Created with sketchtool.</desc>
    <defs></defs>
    <g id="Site" stroke="none" stroke-width="1" fill="none" fill-rule="evenodd">
        <g id="Blog" transform="translate(-815.000000, -1877.000000)" fill="#615C5C">
            <g id="Group-13" transform="translate(612.000000, 1870.000000)">
                <g id="Group-14" transform="translate(209.000000, 14.500000) scale(-1, 1) translate(-209.000000, -14.500000) translate(201.000000, 0.000000)">
                    <g id="Group-16" transform="translate(2.000000, 7.000000)">
                        <path d="M10.7591918,5.00113403 C10.7591918,5.10567062 10.7132355,5.19814469 10.6213239,5.27855695 L4.19669176,10.8993812 C4.10478012,10.9797935 3.99908094,11.02 3.87959588,11.02 C3.76011082,11.02 3.65441247,10.9797935 3.5625,10.8993812 L-2.86213212,5.27855695 C-2.95404376,5.19814469 -3,5.10567062 -3,5.00113403 C-3,4.89659815 -2.95404376,4.80412409 -2.86213212,4.72371182 L-2.17279353,4.12061876 C-2.08088188,4.04020649 -1.97518353,4 -1.85569847,4 C-1.73621259,4 -1.63051424,4.04020649 -1.53860259,4.12061876 L3.87959588,8.86092776 L9.29779435,4.12061876 C9.389706,4.04020649 9.49540518,4 9.61489024,4 C9.73437529,4 9.84007365,4.04020649 9.93198612,4.12061876 L10.6213239,4.72371182 C10.7132355,4.80412409 10.7591918,4.89659815 10.7591918,5.00113403 L10.7591918,5.00113403 Z" id="Shape" transform="translate(3.879596, 7.510000) rotate(-270.000000) translate(-3.879596, -7.510000) "></path>
                        <path d="M14.7591918,5.00113403 C14.7591918,5.10567062 14.7132355,5.19814469 14.6213239,5.27855695 L8.19669176,10.8993812 C8.10478012,10.9797935 7.99908094,11.02 7.87959588,11.02 C7.76011082,11.02 7.65441247,10.9797935 7.5625,10.8993812 L1.13786788,5.27855695 C1.04595624,5.19814469 1,5.10567062 1,5.00113403 C1,4.89659815 1.04595624,4.80412409 1.13786788,4.72371182 L1.82720647,4.12061876 C1.91911812,4.04020649 2.02481647,4 2.14430153,4 C2.26378741,4 2.36948576,4.04020649 2.46139741,4.12061876 L7.87959588,8.86092776 L13.2977944,4.12061876 C13.389706,4.04020649 13.4954052,4 13.6148902,4 C13.7343753,4 13.8400736,4.04020649 13.9319861,4.12061876 L14.6213239,4.72371182 C14.7132355,4.80412409 14.7591918,4.89659815 14.7591918,5.00113403 L14.7591918,5.00113403 Z" id="Shape" transform="translate(7.879596, 7.510000) rotate(-270.000000) translate(-7.879596, -7.510000) "></path>
                    </g>
                </g>
            </g>
        </g>
    </g>
</svg>