<?xml version="1.0" encoding="UTF-8"?>
<svg width="8px" height="15px" viewBox="0 0 8 15" version="1.1" xmlns="http://www.w3.org/2000/svg" xmlns:xlink="http://www.w3.org/1999/xlink">
    <!-- Generator: sketchtool 40 (33762) - http://www.bohemiancoding.com/sketch -->
    <title>0C264802-BC7A-400E-B012-88498C52FC09</title>
    <desc>Created with sketchtool.</desc>
    <defs></defs>
    <g id="Site" stroke="none" stroke-width="1" fill="none" fill-rule="evenodd">
        <g id="Blog" transform="translate(-616.000000, -1877.000000)" fill="#615C5C">
            <g id="Group-13" transform="translate(612.000000, 1870.000000)">
                <g id="Group-14">
                    <path d="M14.7591918,12.001134 C14.7591918,12.1056706 14.7132355,12.1981447 14.6213239,12.278557 L8.19669176,17.8993812 C8.10478012,17.9797935 7.99908094,18.02 7.87959588,18.02 C7.76011082,18.02 7.65441247,17.9797935 7.5625,17.8993812 L1.13786788,12.278557 C1.04595624,12.1981447 1,12.1056706 1,12.001134 C1,11.8965982 1.04595624,11.8041241 1.13786788,11.7237118 L1.82720647,11.1206188 C1.91911812,11.0402065 2.02481647,11 2.14430153,11 C2.26378741,11 2.36948576,11.0402065 2.46139741,11.1206188 L7.87959588,15.8609278 L13.2977944,11.1206188 C13.389706,11.0402065 13.4954052,11 13.6148902,11 C13.7343753,11 13.8400736,11.0402065 13.9319861,11.1206188 L14.6213239,11.7237118 C14.7132355,11.8041241 14.7591918,11.8965982 14.7591918,12.001134 L14.7591918,12.001134 Z" id="Shape" transform="translate(7.879596, 14.510000) rotate(-270.000000) translate(-7.879596, -14.510000) "></path>
                </g>
            </g>
        </g>
    </g>
</svg>