<?xml version="1.0" encoding="UTF-8"?>
<svg width="520px" height="183px" viewBox="0 0 520 183" version="1.1" xmlns="http://www.w3.org/2000/svg" xmlns:xlink="http://www.w3.org/1999/xlink">
    <!-- Generator: Sketch 40 (33762) - http://www.bohemiancoding.com/sketch -->
    <title>Dark</title>
    <desc>Created with Sketch.</desc>
    <defs></defs>
    <g id="Page-1" stroke="none" stroke-width="1" fill="none" fill-rule="evenodd">
        <g id="Dark">
            <g id="Group-4">
                <g id="CALSTATE-Moving-&amp;-Storage">
                    <g id="_лой_1" transform="translate(0.000000, -0.000000)">
                        <g id="Group-2">
                            <path d="M85.1256902,76.90964 C84.7751891,76.6457103 84.5102755,76.3777201 84.1556988,76.0975486 L83.2142365,75.3301223 C81.9915582,74.2053758 80.7321996,73.2186847 79.4646897,72.162966 C78.7596119,71.5741997 76.4242964,69.5114877 75.6784626,68.9470842 L70.0174621,64.1882288 C69.0882266,63.4126816 65.9418678,60.8586542 65.3427554,60.2374043 C64.4135199,59.2953784 63.899995,59.5552476 63.8388611,58.2559014 C63.7614248,56.5342677 63.7940296,54.7923318 63.7940296,53.0706981 C63.7940296,50.8455678 63.7125177,48.5473492 63.6758373,46.3384607 C63.639157,44.056484 63.789954,41.5999076 63.6758373,39.3504146 C63.6106278,38.1891239 63.6758373,37.0197123 63.6513838,35.8543612 C63.6513838,34.794582 63.5698719,33.6617146 63.5698719,32.5329076 C63.5698719,30.2468704 63.4027725,10.3425111 63.2682779,6.01812465 L7.88095108,6.01812465 C7.82514035,6.58891532 7.79929305,7.16222074 7.80351479,7.73569788 C7.78313682,8.62087746 8.11325996,8.38131051 8.50451702,8.87668624 C9.8087072,10.500869 9.45413049,10.6308036 9.83723636,13.0021104 C10.10215,14.6262931 9.98803335,14.5938094 9.5927007,16.0271507 C9.51605673,16.5183854 9.36055417,16.9941286 9.13215854,17.4361292 C8.81318844,17.8211374 8.64778126,18.3097337 8.66754079,18.8085636 C8.63357101,19.4292671 8.65676301,20.0517662 8.73682589,20.6682528 C8.82648897,21.0946008 9.18514127,21.638702 9.01396631,22.0853522 C8.65531401,23.0273782 6.40966154,26.5518547 5.38261177,29.3941745 C5.06471541,30.2631122 4.46560304,31.2701055 4.787575,32.2770988 C4.97097674,32.8455628 5.24404156,33.1094924 5.08916898,33.7835283 C4.96307217,34.2763589 5.05030574,34.7992893 5.32962904,35.2249904 C6.67865076,38.1403984 6.84167453,37.4135767 7.77498563,38.2337889 C8.11033297,38.5033081 8.38758303,38.8375346 8.5901045,39.2164195 C8.78381281,39.6312172 9.01864726,40.0256884 9.29110672,40.3939519 C11.4511717,43.2931181 11.3289039,42.1805529 12.6860768,46.0461078 C13.0569559,47.0855848 12.6004893,47.6175046 12.2255346,48.8315812 C11.8179752,50.1390483 11.9076383,50.6872099 11.9076383,52.1408535 C11.9076383,53.594497 11.8179752,53.8706081 12.5515822,55.1252892 C12.7472107,55.4582467 13.0406535,55.8927156 13.2159041,56.2662776 C13.3911546,56.6398396 13.105863,57.1595781 12.9795196,57.594047 C12.653472,58.7066121 13.2077529,59.2710156 13.8272432,60.0790465 C14.3611461,60.7733846 14.8420662,61.496146 15.3881958,62.1904841 C17.8335524,65.3251567 17.2629692,65.061227 21.0940279,67.4081711 C21.6442331,67.745189 21.9621295,69.3531299 22.1292288,70.0393471 C22.4797299,71.4767488 23.2377905,73.0197224 22.8587602,74.5058496 C22.3737645,76.4061433 23.0788423,75.7524098 24.4604688,76.1584555 C25.5078965,76.4711106 26.4982659,78.2495907 27.7209442,78.3470417 C29.1514778,78.4647949 30.1336961,78.7287246 29.8810092,77.1654488 C29.762817,76.4183247 29.9665967,76.3086924 30.2355859,75.8011353 C30.4597436,75.3950896 30.5697847,74.8997139 31.0507048,74.8103838 C31.8250677,78.3104976 31.8128409,78.3795253 33.7976554,81.3314774 C34.2698212,82.086844 34.4249853,82.9968706 34.2296684,83.8652025 L32.4445581,83.532245 C30.5901626,82.9597206 31.2707869,79.9468617 29.7668926,79.6423274 L29.5834908,81.5345003 C29.6419126,81.8695381 29.6637764,82.2098903 29.6487004,82.5496145 C29.5753397,82.8866324 29.3145016,82.8419674 29.2411409,83.1749248 C29.1677802,83.5078823 29.6894563,84.3199736 29.6976075,84.8640749 C29.6531268,85.4808594 29.701204,86.1008046 29.8402533,86.7034618 C30.1010913,87.9215988 30.5453311,90.8451277 31.2178042,91.8196374 C32.032923,93.0134117 33.7242947,93.9879213 35.1222235,94.4061483 C36.5201524,94.8243754 37.4330855,94.536083 38.4438329,95.4415648 C38.8513923,95.8151269 38.8513923,96.5784927 38.9410554,97.1713194 C39.0592476,97.9468667 39.226347,98.24328 38.8513923,98.9822832 C38.6491039,99.4679187 38.3978456,99.9318364 38.101483,100.366899 C37.6246384,100.858214 37.3189689,100.46841 36.9643922,101.361711 C36.6098155,102.255011 37.1681719,104.078156 37.3719516,105.016122 C37.7306039,106.640305 37.5594289,106.522551 39.0714744,107.675721 C39.8865933,108.309152 40.6609562,108.958826 41.516831,109.592257 C42.0425827,109.998302 41.9569952,110.359683 42.2667404,110.972812 C42.5400191,111.399852 42.873561,111.785488 43.2571098,112.117861 C43.9418096,112.873106 44.0966822,114.257722 44.7447017,114.984543 C45.0707493,115.349985 45.5190646,115.75197 45.8654902,116.080867 L49.1259656,119.264265 C44.8954987,118.95567 40.5183104,118.630834 35.9944007,118.289755 C42.9446476,122.604667 49.5525445,126.694901 55.8180915,130.560456 C56.002804,131.793013 56.0940838,133.037679 56.0911563,134.283895 C56.0014932,135.148772 55.2312059,135.908077 55.5898582,136.797317 C55.8343939,137.406386 57.028543,137.767767 57.5991262,138.039817 C59.7999471,139.091475 60.4520422,139.619335 62.4898394,138.965601 C63.2805047,138.713853 63.4313017,138.892513 64.2464205,139.002145 C65.4690988,139.168624 66.752911,139.436614 67.9755893,139.647758 C70.5839697,140.098469 68.8803713,140.053804 71.1219482,139.992897 L76.6932856,143.419922 L76.9174433,143.683852 C76.990804,149.252092 77.0600891,154.817625 77.1252986,160.38045 C77.1905081,165.943276 77.2597932,171.527758 77.3331539,177.133895 C81.0337935,173.29541 84.6148824,169.574678 88.0764205,165.9717 C91.423842,162.493242 94.6666565,159.109528 97.8048642,155.820557 L102.173901,158.256832 L102.198355,158.277134 C103.073229,159.066135 103.830757,159.975346 104.448083,160.977338 C104.923923,162.206416 105.318737,163.465126 105.630005,164.745442 C106.037565,166.251871 106.163908,167.202018 106.852684,168.440457 L107.781919,168.546029 C107.638085,169.060028 107.569451,169.592016 107.578139,170.125547 C107.755256,170.590763 108.017862,171.019011 108.352502,171.388349 C108.878254,171.948692 108.939388,171.908087 109.852321,171.74973 C110.435131,171.648218 111.026092,171.57919 111.625205,171.469558 C113.34103,171.156903 116.960157,170.560016 118.639302,170.348872 C122.132087,169.910343 125.734912,169.224125 129.235848,168.635359 C130.727515,168.383611 133.083209,168.054714 134.448533,167.786724 C135.813857,167.518734 142.550814,166.393987 143.308875,166.389927 C143.953975,166.40697 144.599281,166.364834 145.236631,166.264052 C146.459309,165.97576 146.459309,164.781986 146.752752,163.770932 C146.899473,163.251193 147.184765,162.552795 146.817961,162.122386 C146.524519,161.769127 144.592687,161.168179 144.054709,160.782436 C142.762745,159.856652 143.431143,159.121709 143.557486,157.688368 L143.557486,157.688368 L114.474045,146.725134 L127.450737,159.052681 C128.296129,158.184546 129.682172,158.14648 130.574286,158.966895 C131.466399,159.787311 131.539044,161.166833 130.737996,162.075749 C129.936949,162.984664 128.554517,163.091303 127.622586,162.316068 C126.690654,161.540832 126.549292,160.16661 127.304016,159.21916 L109.061656,145.064407 C110.664723,148.147648 112.239261,151.175395 113.78527,154.147649 C115.804047,158.024032 117.779352,161.813792 119.711184,165.516928 C116.390933,163.473165 112.955207,161.348193 109.404006,159.142011 L97.9841903,152.02403 C95.3893953,154.576704 92.7524857,157.174043 90.0734617,159.816047 C87.3292282,162.523018 84.5306535,165.277361 81.6777374,168.079077 C81.5011284,163.604453 81.3245193,159.0987 81.1479102,154.561816 C80.9713011,150.024932 80.7919749,145.423081 80.6099317,140.756263 C75.8550717,137.55933 70.8923563,134.21216 65.7217857,130.714753 C60.3256988,127.073877 54.6796421,123.251633 48.7836157,119.248023 C54.5899791,119.802952 60.1735433,120.329458 65.5343083,120.827541 L72.4016848,121.469093 L46.4849805,82.0582992 C45.4594137,82.7161683 44.0939267,82.4344581 43.4149273,81.4249242 C42.7359279,80.4153902 42.9936249,79.0500423 43.994313,78.3551835 C44.995001,77.6603247 46.3699301,77.8920081 47.0855951,78.8760821 C47.80126,79.8601562 47.5939409,81.2339931 46.6194751,81.9649087 L77.3046247,121.919804 L79.2935148,122.102524 L49.5865078,48.2671777 C48.4505669,48.7187782 47.1615237,48.1742746 46.6975564,47.0468582 C46.233589,45.9194419 46.7679523,44.6301129 47.8951497,44.1572662 C49.0223471,43.6844196 50.3214604,44.2046258 50.8066698,45.3231313 C51.2918792,46.4416369 50.7819977,47.7407691 49.6639441,48.234694 L80.4550592,117.063497 C80.4985322,114.123727 80.5433637,111.175835 80.5895538,108.219822 C80.6588389,103.513753 80.7158972,98.7792603 80.7933335,94.0082236 C83.8445951,99.4357008 86.8143448,104.70076 89.7025827,109.803401 L95.0008553,119.191177 L95.6040432,99.656319 C94.3970789,99.5935816 93.4601084,98.5840928 93.4916047,97.3803847 C93.523101,96.1766767 94.5115917,95.217196 95.7201977,95.217196 C96.9288037,95.217196 97.9172943,96.1766767 97.9487906,97.3803847 C97.980287,98.5840928 97.0433165,99.5935816 95.8363521,99.656319 L97.6133112,123.503382 L104.113884,111.415402 C103.058784,110.858326 102.636051,109.568806 103.157713,108.498665 C103.679375,107.428524 104.958017,106.962225 106.049847,107.443953 C107.141677,107.925682 107.654438,109.18237 107.20965,110.28643 C106.764862,111.390489 105.522323,111.945269 104.399176,111.541276 L99.6185036,124.534738 L105.185765,125.346829 L126.933137,112.162526 L126.582636,111.866113 C125.987599,111.326072 125.445545,110.883482 124.732316,110.298776 L120.942013,107.086955 C120.61189,106.794602 120.30622,106.575337 119.955719,106.274864 C119.605218,105.97439 119.356607,105.734823 119.042786,105.462772 L116.18987,103.091465 C116.045296,102.947888 115.892911,102.812335 115.733404,102.68542 C115.325844,102.393067 110.634835,98.4666052 110.072403,97.9265644 C109.383628,97.2728309 106.632601,94.9949146 105.817483,94.3289997 C105.173539,93.8052007 104.558124,93.2529786 103.906029,92.7332401 C103.253934,92.2135017 102.683351,91.6815818 102.067936,91.1577829 C100.845258,90.1589105 98.9378794,88.6240579 97.7844862,87.5805205 C96.1094169,86.0619096 94.340609,84.7382007 92.6614641,83.2277108 L91.6751703,82.4156194 C89.7514898,80.8523435 87.9337747,79.2687654 86.0263966,77.6445827 C85.6799711,77.3522298 85.4150574,77.0923605 85.1053123,76.8609145 L85.1256902,76.90964 Z M171.767467,146.534882 L171.792462,146.534882 C172.571498,142.056499 174.846116,138.802513 177.716467,138.648945 C180.840941,138.462172 183.70296,141.969339 184.856933,146.987285 L227.387283,143.177133 L224.258643,154.171789 L218.992861,154.636644 C218.412508,156.252045 217.310705,157.630022 215.860054,158.55471 C214.535719,158.877102 213.173215,159.016757 211.810735,158.969759 C210.250458,158.347232 208.95293,157.208417 208.136353,155.744826 L188.556311,157.71216 C187.926661,159.555982 186.797791,161.19057 185.294359,162.435421 C183.848769,163.514549 179.682803,163.514549 178.016416,163.024791 C175.412687,162.418819 173.133904,159.289347 172.096578,155.047543 L171.721641,154.914727 L134.482068,144.422281 L171.767467,146.534882 L171.767467,146.534882 Z M153.187257,109.894328 L153.187257,127.326399 L108.344795,137.586418 L139.689526,124.30484 L109.16549,134.876146 L147.838156,117.564439 L104.512106,134.344883 L153.187257,109.894328 L153.187257,109.894328 Z M153.212253,132.248884 L153.416385,137.080058 L121.696717,137.910157 L153.212253,132.257185 L153.212253,132.248884 Z M151.770828,97.936757 L158.95712,106.495074 L159.340389,106.951628 L159.373717,107.528547 L161.527521,142.73303 L157.657339,138.196541 L155.849309,108.31299 L149.046286,100.211227 C148.767166,98.8291131 150.296076,97.6545235 151.77916,97.9284561 L151.770828,97.936757 Z M200.679273,132.107767 L200.920899,137.026102 L201.179189,142.23082 L210.719252,141.47543 L219.996859,140.740793 L219.971863,140.570623 L225.312632,140.255185 L225.12933,137.171369 L219.501109,137.503408 L219.226155,135.714546 L218.492945,130.958081 L209.702756,131.522548 L200.683439,132.099466 L200.679273,132.107767 Z M190.855924,98.8125111 L197.854748,107.150852 L198.154698,107.507794 L200.929231,108.682384 L171.696645,108.761243 L161.565015,102.875844 L190.472656,104.253808 L197.90474,107.404032 L189.793603,102.946402 L188.193872,101.037175 C187.923084,99.6924157 189.4145,98.5468795 190.855924,98.8125111 L190.855924,98.8125111 Z M171.592496,113.36414 L174.58366,124.769695 L166.11425,124.595375 L165.44353,114.79191 L171.58833,113.368291 L171.592496,113.36414 Z M174.925269,112.832877 L178.849609,124.499913 L207.523956,123.067993 L203.920395,112.463483 L174.912771,112.832877 L174.925269,112.832877 Z M209.456964,129.248078 C210.910886,129.160917 212.114851,129.447301 212.139847,129.883103 C212.164842,130.318905 211.006704,130.746406 209.552781,130.829415 C208.098859,130.912425 206.899061,130.630192 206.869899,130.19439 C206.840737,129.758588 208.003042,129.331087 209.456964,129.248078 L209.456964,129.248078 Z M175.620986,129.011499 L176.066744,132.589225 C183.98208,134.046048 195.134372,133.207648 195.684279,142.417592 L199.471143,142.193466 L198.846248,132.103617 L175.600156,129.011499 L175.620986,129.011499 Z M184.369515,139.852588 L184.552817,142.936404 L192.247357,142.47985 L192.064055,139.396033 L184.369515,139.852588 Z M215.693416,147.539301 L217.359802,147.439689 L218.94287,147.344228 C218.967865,147.738525 218.997027,148.132821 219.026189,148.527118 C219.055351,148.921415 219.080346,149.315712 219.109508,149.714159 L217.522275,149.867728 L215.855889,150.029597 C215.828115,149.611781 215.801731,149.196731 215.776735,148.784449 C215.751739,148.372167 215.725355,147.957117 215.697582,147.539301 L215.693416,147.539301 Z M178.57049,146.497527 C180.024412,146.410367 181.361687,148.987823 181.557488,152.24596 C181.753288,155.504097 180.724294,158.22267 179.278704,158.309831 C177.833114,158.396991 176.487507,155.819535 176.291706,152.557247 C176.095906,149.29496 177.124899,146.580537 178.57049,146.493377 L178.57049,146.497527 Z M177.945595,143.422012 C175.720969,143.554827 174.133736,147.352529 174.408689,151.90977 C174.587826,154.927179 175.537666,157.521237 176.808286,158.886749 C176.018211,157.134481 175.570036,155.248432 175.487675,153.329239 C175.216887,148.763696 176.641647,144.982597 178.670473,144.862233 C180.028578,144.783373 181.311696,146.360561 182.094897,148.771997 C181.357521,145.559516 179.71613,143.314099 177.928931,143.417861 L177.945595,143.422012 Z M202.703933,133.112187 L204.299498,133.008424 C204.385595,134.242504 204.47308,135.487652 204.561954,136.743868 C204.650828,138.000084 204.74109,139.306106 204.832742,140.661934 L203.166355,140.790599 C203.085813,139.462441 203.00666,138.152269 202.928895,136.860082 C202.85113,135.567895 202.774754,134.313063 202.699767,133.095585 L202.703933,133.112187 Z M205.886731,132.904662 L207.465632,132.8009 C207.573947,134.026679 207.683651,135.271827 207.794744,136.536344 C207.905836,137.80086 208.021094,139.098581 208.140519,140.429506 L206.474132,140.558171 C206.368594,139.238315 206.264445,137.936443 206.161685,136.652557 C206.058924,135.368671 205.96033,134.123523 205.865901,132.917113 L205.886731,132.904662 Z M209.036202,132.697137 L210.602605,132.593375 C210.733139,133.81362 210.865061,135.050467 210.998372,136.303916 C211.131683,137.557365 211.270548,138.848168 211.414968,140.176326 L209.786076,140.300841 C209.658319,138.989285 209.531952,137.695715 209.406973,136.42013 C209.281994,135.144545 209.161181,133.899397 209.044534,132.684686 L209.036202,132.697137 Z M212.160676,132.493763 L213.710416,132.390001 C213.863168,133.599178 214.017309,134.827724 214.172838,136.075639 C214.328368,137.323554 214.488063,138.606056 214.651924,139.923146 L213.035529,140.047661 C212.881389,138.744406 212.73558,137.457753 212.585605,136.187702 C212.43563,134.917651 212.298153,133.697406 212.169008,132.489613 L212.160676,132.493763 Z M215.251823,132.290389 L216.784899,132.190777 C216.957092,133.39442 217.132063,134.616049 217.309811,135.855663 C217.487559,137.095277 217.670861,138.369478 217.859718,139.678267 L216.255821,139.802782 C216.083628,138.507828 215.912823,137.229476 215.743407,135.967726 L215.251823,132.294539 L215.251823,132.290389 Z M188.093889,149.817922 L190.151876,149.697557 L192.105714,149.581344 C192.139042,150.066951 192.17237,150.552559 192.205698,151.042317 C192.239025,151.532075 192.272353,152.017683 192.305681,152.507441 L190.347677,152.698364 L188.289689,152.897588 C188.256361,152.382926 188.223034,151.868265 188.189706,151.353604 C188.156378,150.838943 188.124439,150.327049 188.093889,149.817922 Z M219.826054,147.27782 L221.288309,147.190659 L222.683907,147.10765 C222.708903,147.477044 222.738065,147.846437 222.767227,148.215831 C222.796388,148.585225 222.821384,148.95877 222.850546,149.328163 L221.454947,149.46513 L219.992693,149.606247 C219.96492,149.2161 219.937147,148.827337 219.909374,148.439958 C219.881601,148.052579 219.855216,147.663816 219.83022,147.273669 L219.826054,147.27782 Z M193.193032,149.514936 L195.001061,149.407023 L196.721605,149.303261 C196.754933,149.759815 196.788261,150.216369 196.821588,150.672923 C196.854916,151.129478 196.89241,151.590182 196.925737,152.046736 L195.201027,152.216907 L193.392998,152.391227 C193.35967,151.90977 193.326343,151.428313 193.293015,150.946856 C193.259687,150.465399 193.224971,149.995009 193.188866,149.535688 L193.193032,149.514936 Z" id="Combined-Shape" fill="#FFFFFF" transform="translate(116.041292, 91.576010) rotate(3.000000) translate(-116.041292, -91.576010) "></path>
                            <g id="Group" transform="translate(100.000000, 11.000000)">
                                <path d="M15.5,36.525 C15.5,24.225 23,15.125 35.5,15.125 C41,15.125 46,17.425 49.8,21.225 C50.5,21.825 51.7,21.825 52.5,21.225 L60.3,13.525 C60.9,12.925 60.9,11.525 60.5,10.825 C54.2,4.725 45.1,0.525 35.5,0.525 C14.8,0.525 0,15.425 0,36.525 C0,58.525 15.9,72.525 35.5,72.525 C45.1,72.525 54.2,68.325 60.5,62.325 C61,61.825 60.8,60.425 60.5,59.725 L52.9,52.125 C51.9,51.325 50.5,51.225 49.8,51.825 C46,55.625 41,57.925 35.5,57.925 C24.5,57.925 15.5,49.725 15.5,36.525 Z M104.3,70.425 C104.5,71.025 105.4,71.525 106.2,71.525 L118.3,71.525 C119.8,71.525 120.6,70.325 120.1,69.125 L93.6,1.125 C92.9,-0.375 90.4,-0.375 89.7,1.125 C81.1,23.125 71.8,47.125 63.2,69.125 C62.7,70.325 63.4,71.525 65.1,71.525 L77,71.525 C78,71.525 78.9,71.025 79.1,70.325 L81.6,63.525 L101.6,63.525 L104.3,70.425 Z M89.2,41.025 C90.2,38.025 91,35.025 91.7,31.325 C92.3,34.825 93.1,37.725 94.1,41.025 L97.6,51.425 L85.6,51.425 L89.2,41.025 Z M140.8,56.925 L140.8,3.325 C140.8,2.425 139.9,1.525 138.7,1.525 L127.5,1.525 C126.3,1.525 125.4,2.425 125.4,3.325 L125.4,69.825 C125.4,70.625 126.3,71.525 127.5,71.525 L163.3,71.525 C164.6,71.525 165.5,70.625 165.5,69.825 L165.5,58.725 C165.5,57.825 164.6,56.925 163.3,56.925 L140.8,56.925 Z M217,51.125 C217,42.525 212.8,35.325 204.9,31.725 C199.8,29.325 194.6,29.325 194.1,29.325 C190.2,29.325 186.5,27.025 186.5,22.625 C186.5,17.625 190,15.125 194.1,15.125 C198,15.125 201.3,17.225 201.5,21.425 C201.5,22.125 202.6,23.125 203.7,23.125 L214.6,23.125 C215.9,23.125 216.8,22.125 216.8,21.425 C216.6,9.025 206.7,0.525 194.1,0.525 C182.4,0.525 171.2,8.925 171.2,22.625 C171.2,31.225 175.6,37.625 183.2,41.225 C188.5,43.625 193.5,43.625 194.1,43.625 C197.6,43.925 201.7,46.625 201.7,51.125 C201.7,55.225 198.2,57.925 194.1,57.925 C190.2,57.925 186.7,55.725 186.5,51.425 C186.5,50.525 185.5,49.625 184.4,49.625 L173.3,49.625 C172.1,49.625 171.2,50.525 171.2,51.425 C171.4,64.825 181.4,72.225 194.1,72.525 C205.9,72.525 217,64.825 217,51.125 Z M265.4,3.325 C265.4,2.425 264.5,1.525 263.2,1.525 L224.2,1.525 C223,1.525 222.1,2.425 222.1,3.325 L222.1,13.425 C222.1,14.225 223,15.125 224.2,15.125 L236.1,15.125 L236.1,69.825 C236.1,70.625 237,71.525 238.2,71.525 L249.2,71.525 C250.5,71.525 251.4,70.625 251.4,69.825 L251.4,15.125 L263.2,15.125 C264.5,15.125 265.4,14.225 265.4,13.425 L265.4,3.325 Z M306.5,70.425 C306.7,71.025 307.6,71.525 308.4,71.525 L320.5,71.525 C322,71.525 322.8,70.325 322.3,69.125 L295.8,1.125 C295.1,-0.375 292.6,-0.375 291.9,1.125 C283.3,23.125 274,47.125 265.4,69.125 C264.9,70.325 265.6,71.525 267.3,71.525 L279.2,71.525 C280.2,71.525 281.1,71.025 281.3,70.325 L283.8,63.525 L303.8,63.525 L306.5,70.425 Z M291.4,41.025 C292.4,38.025 293.2,35.025 293.9,31.325 C294.5,34.825 295.3,37.725 296.3,41.025 L299.8,51.425 L287.8,51.425 L291.4,41.025 Z M365.2,3.325 C365.2,2.425 364.3,1.525 363,1.525 L324,1.525 C322.8,1.525 321.9,2.425 321.9,3.325 L321.9,13.425 C321.9,14.225 322.8,15.125 324,15.125 L335.9,15.125 L335.9,69.825 C335.9,70.625 336.8,71.525 338,71.525 L349,71.525 C350.3,71.525 351.2,70.625 351.2,69.825 L351.2,15.125 L363,15.125 C364.3,15.125 365.2,14.225 365.2,13.425 L365.2,3.325 Z M416.2,15.825 C417.4,15.825 418.3,14.925 418.3,14.025 L418.3,3.325 C418.3,2.425 417.4,1.525 416.2,1.525 L372.7,1.525 C371.4,1.525 370.6,2.425 370.6,3.325 L370.6,69.825 C370.6,70.625 371.4,71.525 372.7,71.525 L417,71.525 C418.3,71.525 419.2,70.625 419.2,69.825 L419.2,58.725 C419.2,57.825 418.3,56.925 417,56.925 L385.9,56.925 L385.9,43.525 L411.5,43.525 C412.7,43.525 413.5,42.625 413.5,41.825 L413.5,31.025 C413.5,30.125 412.7,29.225 411.5,29.225 L385.9,29.225 L385.9,15.825 L416.2,15.825 Z" id="CALSTATE" fill="#038CCF"></path>
                                <path d="M125,111.909074 L125,86.4344244 L132.698001,86.4344244 L137.320277,103.811402 L141.890422,86.4344244 L149.605801,86.4344244 L149.605801,111.909074 L144.827132,111.909074 L144.827132,91.8560415 L139.770431,111.909074 L134.817992,111.909074 L129.778669,91.8560415 L129.778669,111.909074 L125,111.909074 Z M153.245334,102.421244 C153.245334,100.799385 153.645001,99.22968 154.444345,97.712083 C155.24369,96.194486 156.376079,95.0360324 157.841545,94.2366875 C159.30701,93.4373425 160.943326,93.037676 162.750541,93.037676 C165.542456,93.037676 167.830402,93.9441659 169.614447,95.757173 C171.398492,97.5701801 172.290502,99.8610221 172.290502,102.629768 C172.290502,105.421683 171.389804,107.735694 169.588382,109.57187 C167.786959,111.408047 165.519286,112.326121 162.785295,112.326121 C161.093927,112.326121 159.480781,111.943832 157.945807,111.179241 C156.410832,110.41465 155.24369,109.293846 154.444345,107.816796 C153.645001,106.339745 153.245334,104.541246 153.245334,102.421244 L153.245334,102.421244 Z M158.249904,102.681899 C158.249904,104.512283 158.684324,105.914012 159.553177,106.887127 C160.42203,107.860243 161.4936,108.346793 162.767918,108.346793 C164.042236,108.346793 165.110909,107.860243 165.97397,106.887127 C166.837031,105.914012 167.268555,104.500698 167.268555,102.647145 C167.268555,100.83993 166.837031,99.4497857 165.97397,98.47667 C165.110909,97.5035544 164.042236,97.0170039 162.767918,97.0170039 C161.4936,97.0170039 160.42203,97.5035544 159.553177,98.47667 C158.684324,99.4497857 158.249904,100.851515 158.249904,102.681899 L158.249904,102.681899 Z M180.882474,111.909074 L173.445127,93.4547235 L178.571336,93.4547235 L182.046731,102.873045 L183.054596,106.018278 C183.321044,105.218933 183.48902,104.691837 183.558528,104.436973 C183.720714,103.915661 183.894482,103.394357 184.079838,102.873045 L187.589987,93.4547235 L192.611934,93.4547235 L185.278849,111.909074 L180.882474,111.909074 Z M195.295734,90.9524387 L195.295734,86.4344244 L200.178664,86.4344244 L200.178664,90.9524387 L195.295734,90.9524387 Z M195.295734,111.909074 L195.295734,93.4547235 L200.178664,93.4547235 L200.178664,111.909074 L195.295734,111.909074 Z M221.664354,111.909074 L216.781423,111.909074 L216.781423,102.490752 C216.781423,100.498182 216.677162,99.2094022 216.468638,98.6243743 C216.260113,98.0393465 215.921265,97.5846535 215.452084,97.2602816 C214.982904,96.9359097 214.418158,96.7737262 213.757829,96.7737262 C212.912145,96.7737262 212.153358,97.0054169 211.481445,97.4688053 C210.809532,97.9321937 210.349047,98.5461741 210.099975,99.310765 C209.850904,100.075356 209.72637,101.488669 209.72637,103.550748 L209.72637,111.909074 L204.843439,111.909074 L204.843439,93.4547235 L209.378831,93.4547235 L209.378831,96.165532 C210.989105,94.0802842 213.016399,93.037676 215.460773,93.037676 C216.538151,93.037676 217.522836,93.231717 218.414859,93.6198048 C219.306882,94.0078925 219.981681,94.5031314 220.439277,95.1055363 C220.896873,95.7079413 221.215448,96.3914289 221.395011,97.1560197 C221.574574,97.9206106 221.664354,99.0153492 221.664354,100.440269 L221.664354,111.909074 Z M225.859951,113.125462 L231.437961,113.803164 C231.530638,114.451908 231.744952,114.897913 232.080909,115.141192 C232.544297,115.488733 233.274123,115.662501 234.270408,115.662501 C235.544726,115.662501 236.50045,115.471356 237.137609,115.089061 C237.566244,114.834197 237.890611,114.422946 238.11072,113.855295 C238.261321,113.449831 238.336621,112.702628 238.336621,111.613665 L238.336621,108.920234 C236.876947,110.912804 235.035006,111.909074 232.810742,111.909074 C230.331614,111.909074 228.368035,110.860673 226.919946,108.763841 C225.784645,107.107227 225.217003,105.04518 225.217003,102.577637 C225.217003,99.4845193 225.961309,97.1212739 227.449944,95.4878299 C228.938579,93.8543858 230.789209,93.037676 233.001889,93.037676 C235.284076,93.037676 237.166564,94.0397384 238.649406,96.0438931 L238.649406,93.4547235 L243.219552,93.4547235 L243.219552,110.014983 C243.219552,112.192909 243.039991,113.820536 242.680865,114.897914 C242.321739,115.975292 241.817812,116.820963 241.169068,117.434953 C240.520324,118.048942 239.65438,118.529701 238.57121,118.877242 C237.48804,119.224783 236.118168,119.398551 234.461555,119.398551 C231.333683,119.398551 229.115244,118.862766 227.806172,117.791181 C226.4971,116.719595 225.842574,115.361308 225.842574,113.71628 C225.842574,113.554094 225.848366,113.357156 225.859951,113.125462 L225.859951,113.125462 Z M230.221572,102.299605 C230.221572,104.257421 230.600966,105.691007 231.359764,106.600407 C232.118563,107.509807 233.054014,107.9645 234.166146,107.9645 C235.359371,107.9645 236.367226,107.498222 237.18974,106.565653 C238.012255,105.633084 238.423506,104.251628 238.423506,102.421244 C238.423506,100.509767 238.029631,99.0906612 237.241871,98.1638844 C236.454111,97.2371077 235.457841,96.7737262 234.253031,96.7737262 C233.082975,96.7737262 232.118563,97.2284193 231.359764,98.137819 C230.600966,99.0472187 230.221572,100.434467 230.221572,102.299605 L230.221572,102.299605 Z M279.900465,108.798595 L276.946379,112.569399 C275.49829,111.862732 274.108146,110.889631 272.775904,109.650067 C271.744865,110.576844 270.650126,111.260331 269.491655,111.70055 C268.333184,112.140769 266.954625,112.360875 265.355935,112.360875 C262.181724,112.360875 259.79531,111.468866 258.19662,109.684821 C256.957056,108.30624 256.337283,106.719159 256.337283,104.923529 C256.337283,103.290085 256.823834,101.821745 257.796949,100.518465 C258.770065,99.2151851 260.223924,98.0827967 262.158571,97.1212658 C261.289717,96.0902266 260.635191,95.1084372 260.194972,94.175868 C259.754753,93.2432989 259.534647,92.359978 259.534647,91.5258789 C259.534647,89.9851125 260.151524,88.6789561 261.385295,87.6073704 C262.619067,86.5357848 264.37702,86 266.659208,86 C268.860303,86 270.580606,86.56185 271.82017,87.6855668 C273.059734,88.8092837 273.679507,90.1820512 273.679507,91.8039106 C273.679507,92.8349497 273.372517,93.813843 272.758527,94.7406198 C272.144537,95.6673966 270.904992,96.7157971 269.039854,97.8858528 L272.584757,102.56026 C273.001807,101.818838 273.360927,100.85153 273.66213,99.6583045 L278.075882,100.666169 C277.635663,102.230105 277.253374,103.374078 276.929002,104.098122 C276.60463,104.822167 276.257094,105.427459 275.886383,105.914017 C276.430864,106.423744 277.134625,106.982698 277.997686,107.590895 C278.860747,108.199092 279.495,108.601655 279.900465,108.798595 L279.900465,108.798595 Z M266.607077,94.9491435 L267.927727,93.9412788 C268.900843,93.1882727 269.387393,92.4410701 269.387393,91.6996487 C269.387393,91.0740744 269.152807,90.5411857 268.683626,90.1009668 C268.214445,89.6607478 267.580192,89.4406416 266.780847,89.4406416 C266.004671,89.4406416 265.396483,89.6346826 264.956264,90.0227704 C264.516045,90.4108581 264.295939,90.8597589 264.295939,91.3694861 C264.295939,91.971891 264.666644,92.7017168 265.408065,93.5589853 L266.607077,94.9491435 Z M264.695609,100.249122 C263.571893,100.816773 262.732014,101.50026 262.175948,102.299605 C261.619882,103.09895 261.341853,103.91566 261.341853,104.749759 C261.341853,105.803968 261.686493,106.664119 262.375783,107.33024 C263.065073,107.996361 263.98894,108.329416 265.147411,108.329416 C265.912002,108.329416 266.64762,108.178817 267.354287,107.877615 C268.060954,107.576413 268.831326,107.078278 269.665425,106.383195 L264.695609,100.249122 Z M291.037221,103.620255 L296.041791,103.1337 C296.342993,104.813483 296.954077,106.047236 297.875062,106.834996 C298.796046,107.622757 300.038488,108.016631 301.602424,108.016631 C303.259037,108.016631 304.507271,107.666199 305.347162,106.965324 C306.187054,106.264449 306.606993,105.444843 306.606993,104.506481 C306.606993,103.904076 306.430329,103.391461 306.076995,102.968619 C305.723662,102.545777 305.106785,102.177968 304.226347,101.865181 C303.623942,101.656656 302.251175,101.285951 300.108003,100.753054 C297.350843,100.069556 295.416225,99.2296774 294.304093,98.2333923 C292.740157,96.8316425 291.958201,95.1229234 291.958201,93.1071839 C291.958201,91.8096964 292.32601,90.5962163 293.061639,89.4667071 C293.797268,88.3371979 294.857253,87.4770461 296.241626,86.8862259 C297.625999,86.2954057 299.297068,86 301.254884,86 C304.452264,86 306.858951,86.7008644 308.475018,88.1026143 C310.091085,89.5043642 310.939652,91.3752668 311.020745,93.7153781 L305.87716,93.9412788 C305.657051,92.6322066 305.184981,91.6909631 304.460936,91.11752 C303.736892,90.5440768 302.650842,90.2573596 301.202753,90.2573596 C299.708325,90.2573596 298.538287,90.5643498 297.692604,91.1783394 C297.148122,91.5722195 296.875886,92.0993159 296.875886,92.7596444 C296.875886,93.3620493 297.130745,93.8775611 297.640473,94.3061954 C298.289216,94.8506767 299.864713,95.418319 302.367011,96.0091392 C304.869308,96.5999594 306.719937,97.2110437 307.918955,97.8424103 C309.117972,98.473777 310.05632,99.336825 310.734025,100.43158 C311.411731,101.526335 311.750579,102.87883 311.750579,104.489104 C311.750579,105.948778 311.34512,107.315753 310.53419,108.590071 C309.72326,109.864389 308.576391,110.811425 307.093548,111.431207 C305.610706,112.050989 303.762972,112.360875 301.550293,112.360875 C298.329743,112.360875 295.856445,111.616569 294.130323,110.127934 C292.404201,108.639298 291.373178,106.470094 291.037221,103.620255 L291.037221,103.620255 Z M324.20024,93.4547235 L324.20024,97.3471665 L320.86386,97.3471665 L320.86386,104.784513 C320.86386,106.290525 320.895718,107.168054 320.959433,107.417125 C321.023149,107.666196 321.167956,107.871822 321.393858,108.034008 C321.61976,108.196194 321.894892,108.277285 322.219264,108.277285 C322.671068,108.277285 323.325594,108.120894 324.182863,107.808107 L324.59991,111.596288 C323.464609,112.082846 322.178725,112.326121 320.742221,112.326121 C319.861783,112.326121 319.068243,112.178418 318.361575,111.883008 C317.654908,111.587598 317.1365,111.205309 316.806336,110.736128 C316.476171,110.266947 316.247377,109.632694 316.119945,108.833349 C316.015683,108.265698 315.963552,107.118829 315.963552,105.392707 L315.963552,97.3471665 L313.721922,97.3471665 L313.721922,93.4547235 L315.963552,93.4547235 L315.963552,89.7881812 L320.86386,86.9383568 L320.86386,93.4547235 L324.20024,93.4547235 Z M326.154206,102.421244 C326.154206,100.799385 326.553873,99.22968 327.353218,97.712083 C328.152563,96.194486 329.284951,95.0360324 330.750417,94.2366875 C332.215883,93.4373425 333.852199,93.037676 335.659413,93.037676 C338.451328,93.037676 340.739274,93.9441659 342.523319,95.757173 C344.307365,97.5701801 345.199374,99.8610221 345.199374,102.629768 C345.199374,105.421683 344.298676,107.735694 342.497254,109.57187 C340.695832,111.408047 338.428159,112.326121 335.694167,112.326121 C334.0028,112.326121 332.389653,111.943832 330.854679,111.179241 C329.319705,110.41465 328.152563,109.293846 327.353218,107.816796 C326.553873,106.339745 326.154206,104.541246 326.154206,102.421244 L326.154206,102.421244 Z M331.158776,102.681899 C331.158776,104.512283 331.593196,105.914012 332.462049,106.887127 C333.330903,107.860243 334.402472,108.346793 335.67679,108.346793 C336.951108,108.346793 338.019782,107.860243 338.882843,106.887127 C339.745904,105.914012 340.177427,104.500698 340.177427,102.647145 C340.177427,100.83993 339.745904,99.4497857 338.882843,98.47667 C338.019782,97.5035544 336.951108,97.0170039 335.67679,97.0170039 C334.402472,97.0170039 333.330903,97.5035544 332.462049,98.47667 C331.593196,99.4497857 331.158776,100.851515 331.158776,102.681899 L331.158776,102.681899 Z M353.391676,111.909074 L348.508745,111.909074 L348.508745,93.4547235 L353.044136,93.4547235 L353.044136,96.0786471 C353.820312,94.8390832 354.51828,94.0223734 355.138062,93.6284932 C355.757844,93.2346131 356.461605,93.037676 357.249365,93.037676 C358.361497,93.037676 359.433067,93.3446662 360.464106,93.9586558 L358.952309,98.2160154 C358.129794,97.6831187 357.365215,97.4166744 356.658548,97.4166744 C355.97505,97.4166744 355.395823,97.6049231 354.92085,97.9814262 C354.445877,98.3579292 354.072275,99.0385207 353.800035,100.023221 C353.527794,101.007921 353.391676,103.069969 353.391676,106.209425 L353.391676,111.909074 Z M365.910845,99.0848643 L361.479716,98.2855233 C361.977858,96.501478 362.835114,95.1808409 364.051508,94.3235723 C365.267903,93.4663038 367.07509,93.037676 369.473125,93.037676 C371.651051,93.037676 373.272886,93.2954319 374.338679,93.8109515 C375.404472,94.3264711 376.154571,94.9809974 376.588998,95.77455 C377.023424,96.5681026 377.240634,98.024858 377.240634,100.14486 L377.188503,105.844509 C377.188503,107.466368 377.266699,108.662471 377.423093,109.432855 C377.579486,110.203238 377.871996,111.028636 378.30063,111.909074 L373.46983,111.909074 C373.342398,111.584702 373.186007,111.103944 373.000652,110.466785 C372.919559,110.177167 372.861636,109.986022 372.826882,109.893344 C371.992783,110.704274 371.100774,111.312462 370.150827,111.717927 C369.200881,112.123392 368.187234,112.326121 367.109856,112.326121 C365.209964,112.326121 363.712663,111.810609 362.617908,110.77957 C361.523153,109.748531 360.975783,108.445271 360.975783,106.86975 C360.975783,105.827126 361.224851,104.897467 361.722993,104.080745 C362.221136,103.264023 362.919104,102.638458 363.816919,102.204032 C364.714734,101.769605 366.009306,101.390212 367.700674,101.06584 C369.982861,100.637205 371.564151,100.237539 372.444589,99.8668283 L372.444589,99.3802729 C372.444589,98.4419114 372.212898,97.7729044 371.749509,97.3732319 C371.286121,96.9735595 370.411489,96.7737262 369.125586,96.7737262 C368.256733,96.7737262 367.579037,96.9445981 367.092479,97.2863471 C366.605922,97.628096 366.212047,98.2275957 365.910845,99.0848643 L365.910845,99.0848643 Z M372.444589,103.046815 C371.819014,103.25534 370.828536,103.504407 369.473125,103.794025 C368.117714,104.083643 367.231497,104.367464 366.814448,104.645497 C366.177289,105.097301 365.858714,105.670735 365.858714,106.365818 C365.858714,107.049316 366.113574,107.640127 366.623301,108.13827 C367.133028,108.636412 367.781762,108.88548 368.569522,108.88548 C369.44996,108.88548 370.289839,108.595866 371.089184,108.016631 C371.680004,107.576412 372.068086,107.037731 372.253442,106.400572 C372.380874,105.983522 372.444589,105.189982 372.444589,104.019926 L372.444589,103.046815 Z M381.297215,113.125462 L386.875225,113.803164 C386.967903,114.451908 387.182217,114.897913 387.518173,115.141192 C387.981562,115.488733 388.711388,115.662501 389.707673,115.662501 C390.981991,115.662501 391.937715,115.471356 392.574874,115.089061 C393.003508,114.834197 393.327875,114.422946 393.547985,113.855295 C393.698586,113.449831 393.773885,112.702628 393.773885,111.613665 L393.773885,108.920234 C392.314212,110.912804 390.472271,111.909074 388.248006,111.909074 C385.768879,111.909074 383.8053,110.860673 382.357211,108.763841 C381.221909,107.107227 380.654267,105.04518 380.654267,102.577637 C380.654267,99.4845193 381.398574,97.1212739 382.887209,95.4878299 C384.375844,93.8543858 386.226474,93.037676 388.439153,93.037676 C390.721341,93.037676 392.603828,94.0397384 394.086671,96.0438931 L394.086671,93.4547235 L398.656816,93.4547235 L398.656816,110.014983 C398.656816,112.192909 398.477256,113.820536 398.11813,114.897914 C397.759004,115.975292 397.255077,116.820963 396.606333,117.434953 C395.957589,118.048942 395.091645,118.529701 394.008475,118.877242 C392.925304,119.224783 391.555433,119.398551 389.898819,119.398551 C386.770948,119.398551 384.552509,118.862766 383.243437,117.791181 C381.934365,116.719595 381.279838,115.361308 381.279838,113.71628 C381.279838,113.554094 381.285631,113.357156 381.297215,113.125462 L381.297215,113.125462 Z M385.658837,102.299605 C385.658837,104.257421 386.03823,105.691007 386.797029,106.600407 C387.555827,107.509807 388.491279,107.9645 389.603411,107.9645 C390.796636,107.9645 391.80449,107.498222 392.627005,106.565653 C393.449519,105.633084 393.86077,104.251628 393.86077,102.421244 C393.86077,100.509767 393.466896,99.0906612 392.679136,98.1638844 C391.891376,97.2371077 390.895105,96.7737262 389.690296,96.7737262 C388.52024,96.7737262 387.555827,97.2284193 386.797029,98.137819 C386.03823,99.0472187 385.658837,100.434467 385.658837,102.299605 L385.658837,102.299605 Z M413.869417,106.035655 L418.734971,106.852373 C418.109396,108.636419 417.121815,109.994705 415.772196,110.927275 C414.422577,111.859844 412.734131,112.326121 410.706807,112.326121 C407.497842,112.326121 405.123012,111.277721 403.582246,109.180888 C402.365851,107.501105 401.757663,105.381135 401.757663,102.820914 C401.757663,99.7625511 402.556996,97.3674483 404.155686,95.6355342 C405.754376,93.9036201 407.775878,93.037676 410.220252,93.037676 C412.965828,93.037676 415.132136,93.9441659 416.719241,95.757173 C418.306346,97.5701801 419.065134,100.347573 418.995625,104.089434 L406.762233,104.089434 C406.796987,105.537523 407.190861,106.664119 407.943867,107.469256 C408.696874,108.274393 409.635221,108.676956 410.758938,108.676956 C411.523529,108.676956 412.16647,108.468434 412.687782,108.051385 C413.209094,107.634335 413.602969,106.962432 413.869417,106.035655 L413.869417,106.035655 Z M414.147448,101.100594 C414.112694,99.6872591 413.747781,98.6127934 413.052699,97.8771643 C412.357616,97.1415352 411.511945,96.7737262 410.51566,96.7737262 C409.449867,96.7737262 408.569442,97.1618082 407.87436,97.9379837 C407.179277,98.7141593 406.837533,99.7683521 406.849118,101.100594 L414.147448,101.100594 Z" id="Moving-&amp;-Storage" fill="#FFFFFF"></path>
                            </g>
                        </g>
                    </g>
                </g>
            </g>
        </g>
    </g>
</svg>