<?xml version="1.0" encoding="UTF-8"?>
<svg width="7px" height="17px" viewBox="0 0 7 17" version="1.1" xmlns="http://www.w3.org/2000/svg" xmlns:xlink="http://www.w3.org/1999/xlink">
    <!-- Generator: Sketch 39.1 (31720) - http://www.bohemiancoding.com/sketch -->
    <title>Shape</title>
    <desc>Created with Sketch.</desc>
    <defs></defs>
    <g id="Symbols" stroke="none" stroke-width="1" fill="none" fill-rule="evenodd">
        <g id="Menu1" transform="translate(-1178.000000, -27.000000)" fill="#FFFFFF">
            <g id="phone">
                <g transform="translate(1182.500000, 35.906250) rotate(-315.000000) translate(-1182.500000, -35.906250) translate(1176.000000, 29.000000)">
                    <path d="M12.7678574,10.5479909 C12.7678574,10.7112167 12.7376302,10.9243165 12.6771764,11.1872908 C12.6167226,11.4502651 12.5532458,11.6573194 12.4867465,11.8084541 C12.3597933,12.1107236 11.991025,12.4311292 11.380441,12.7696709 C10.8121748,13.0779854 10.2499535,13.2321426 9.69377771,13.2321426 C9.53055242,13.2321426 9.37186088,13.2215633 9.21770363,13.2004047 C9.06354638,13.1792456 8.88974125,13.1414622 8.69628933,13.0870534 C8.50283688,13.0326452 8.35925892,12.9888162 8.26555546,12.9555665 C8.171852,12.9223169 8.00409242,12.8603518 7.76227671,12.7696709 C7.52046154,12.6789899 7.37234929,12.6245817 7.31794104,12.6064456 C6.72549313,12.394857 6.1965215,12.1439733 5.73102671,11.8537949 C4.95721742,11.376209 4.15771471,10.7248185 3.33251967,9.8996235 C2.50732408,9.07442792 1.85593363,8.27492575 1.37834829,7.50111592 C1.08816988,7.03562112 0.837286125,6.50665004 0.625697583,5.91420212 C0.6075615,5.85979333 0.553152708,5.71168162 0.462472292,5.46986592 C0.371791333,5.22805075 0.309826292,5.06029117 0.276576625,4.96658771 C0.243326958,4.87288425 0.199498,4.72930629 0.145089208,4.53585383 C0.0906809583,4.34240137 0.052897,4.16859679 0.0317384167,4.014439 C0.0105792917,3.86028175 0,3.70159021 0,3.53836492 C0,2.98218917 0.15415725,2.41996842 0.462472292,1.85170212 C0.801013958,1.24111812 1.121419,0.872349292 1.4236885,0.745396167 C1.57482325,0.678896833 1.78187804,0.615420542 2.04485233,0.55496675 C2.30782663,0.494512417 2.52092642,0.464285792 2.68415171,0.464285792 C2.76878713,0.464285792 2.83226396,0.473353833 2.87458167,0.491489917 C2.98339817,0.527762083 3.14360096,0.75748725 3.3551895,1.18066433 C3.42168883,1.29552637 3.51236979,1.45875167 3.62723238,1.67034021 C3.74209442,1.88192875 3.84788896,2.07386996 3.94461492,2.24616329 C4.04134142,2.41845717 4.13504488,2.58017121 4.22572529,2.73130596 C4.24386137,2.75548758 4.29675892,2.83105442 4.38441683,2.95800808 C4.47207475,3.08496067 4.53706283,3.19226646 4.57938054,3.27992492 C4.62169825,3.36758283 4.64285738,3.4537295 4.64285738,3.53836492 C4.64285738,3.6592725 4.55671017,3.81040725 4.38441683,3.99176917 C4.2121235,4.17313054 4.02471658,4.33937887 3.82219608,4.49051362 C3.61967558,4.64164783 3.43226867,4.80185062 3.25997479,4.97112146 C3.08768146,5.14039229 3.00153479,5.2794365 3.00153479,5.38825354 C3.00153479,5.44266179 3.01664783,5.51067237 3.046875,5.59228529 C3.07710217,5.67389767 3.10279504,5.73586325 3.12395363,5.77818096 C3.14511275,5.82049867 3.18743046,5.893043 3.25090675,5.9958145 C3.31438358,6.09858654 3.3491445,6.15601729 3.3551895,6.16810837 C3.81463929,6.99632646 4.34058788,7.70665946 4.93303579,8.29910737 C5.52548371,8.89155529 6.23581671,9.41750387 7.06403479,9.87695312 C7.07612533,9.88299867 7.13355663,9.91775958 7.23632813,9.98123587 C7.33909963,10.0447127 7.4116445,10.0870304 7.45396221,10.108189 C7.49627992,10.1293481 7.55824496,10.155041 7.63985788,10.1852676 C7.72147025,10.2154948 7.78948083,10.2306084 7.84388963,10.2306084 C7.95270667,10.2306084 8.09175033,10.1444617 8.26102117,9.97216783 C8.430292,9.7998745 8.59049479,9.61246758 8.74162954,9.40994708 C8.89276429,9.20742658 9.05901208,9.02001967 9.240374,8.84772579 C9.42173537,8.67543246 9.57287012,8.58928579 9.69377771,8.58928579 C9.77841313,8.58928579 9.86456033,8.61044437 9.95221825,8.65276208 C10.0398762,8.69507979 10.147182,8.76006787 10.2741351,8.84772579 C10.4010882,8.93538425 10.4766556,8.98828125 10.5008372,9.00641733 C10.651972,9.09709829 10.813686,9.19080175 10.9859793,9.28752771 C11.1582727,9.38425421 11.3502139,9.49004821 11.5618024,9.60491079 C11.773391,9.71977283 11.9366163,9.81045379 12.0514788,9.87695312 C12.4746559,10.0885417 12.7043805,10.2487445 12.7406527,10.3575615 C12.7587893,10.3998792 12.7678574,10.4633555 12.7678574,10.5479909 L12.7678574,10.5479909 Z" id="Shape"></path>
                </g>
            </g>
        </g>
    </g>
</svg>