<?xml version="1.0" encoding="UTF-8"?>
<svg width="17px" height="14px" viewBox="0 0 17 14" version="1.1" xmlns="http://www.w3.org/2000/svg" xmlns:xlink="http://www.w3.org/1999/xlink">
    <!-- Generator: Sketch 39.1 (31720) - http://www.bohemiancoding.com/sketch -->
    <title>twitter</title>
    <desc>Created with Sketch.</desc>
    <defs></defs>
    <g id="Page-1" stroke="none" stroke-width="1" fill="none" fill-rule="evenodd">
        <g id="Services" transform="translate(-1207.000000, -1666.000000)" fill="#FFFFFF">
            <g id="Group-9" transform="translate(1203.000000, 1660.000000)">
                <g id="twitter" transform="translate(4.200000, 6.500000)">
                    <path d="M16.3691807,1.62209821 C15.9178493,2.28225446 15.3722098,2.84473475 14.7322623,3.30953847 C14.7389988,3.4038465 14.7423667,3.54530856 14.7423667,3.73392463 C14.7423667,4.60964219 14.6143776,5.48367518 14.3583981,6.35602481 C14.1024193,7.22837384 13.7133988,8.06535781 13.1913366,8.86697611 C12.6692739,9.66859442 12.0478519,10.3775886 11.3270687,10.9939594 C10.6062861,11.6103296 9.73730439,12.1020785 8.72012537,12.4692063 C7.70294576,12.836334 6.61503482,13.0198982 5.45639375,13.0198982 C3.63085937,13.0198982 1.96025997,12.5315172 0.444594939,11.5547551 C0.680365029,11.5817004 0.943080357,11.5951733 1.23274092,11.5951733 C2.74840535,11.5951733 4.09903162,11.130369 5.28461793,10.2007615 C4.57730766,10.1872886 3.94409665,9.97004334 3.3849849,9.54902571 C2.82587314,9.12800748 2.44190454,8.59078847 2.23307969,7.93736868 C2.45537686,7.97104977 2.66083378,7.98789062 2.84944985,7.98789062 C3.13911042,7.98789062 3.42540245,7.950841 3.70832656,7.87674174 C2.95386227,7.72180737 2.32907169,7.34625919 1.8339542,6.75009781 C1.33883731,6.15393642 1.09127887,5.46178244 1.09127887,4.67363706 L1.09127887,4.6332189 C1.54934613,4.88919776 2.04109509,5.02729189 2.56652574,5.04750067 C2.1219308,4.75110424 1.76827597,4.36376771 1.50556064,3.88549107 C1.24284531,3.40721443 1.11148765,2.88852024 1.11148765,2.32940848 C1.11148765,1.73661503 1.25968616,1.18760766 1.55608259,0.682385786 C2.37117321,1.68609308 3.36309215,2.48939535 4.53183821,3.09229319 C5.70058366,3.69519104 6.9518494,4.03032105 8.28563482,4.09768385 C8.23174435,3.84170498 8.20479911,3.59246257 8.20479911,3.34995602 C8.20479911,2.44729383 8.52308888,1.67767266 9.15966782,1.04109311 C9.79624736,0.404514175 10.5658679,0.0862244036 11.4685307,0.0862244036 C12.4116111,0.0862244036 13.2064929,0.42977545 13.8531769,1.11687634 C14.5874324,0.975414282 15.2779018,0.712699557 15.9245857,0.328730954 C15.6753427,1.10340402 15.1970661,1.70293393 14.4897558,2.12732009 C15.116231,2.05995669 15.7427055,1.89155 16.3691807,1.62209821 L16.3691807,1.62209821 Z" id="Shape"></path>
                </g>
            </g>
        </g>
    </g>
</svg>