<?xml version="1.0" encoding="UTF-8"?>
<svg width="70px" height="63px" viewBox="0 0 70 63" version="1.1" xmlns="http://www.w3.org/2000/svg" xmlns:xlink="http://www.w3.org/1999/xlink">
    <!-- Generator: sketchtool 40 (33762) - http://www.bohemiancoding.com/sketch -->
    <title>76103A9E-1B33-4E84-B81A-A06C92E830D7</title>
    <desc>Created with sketchtool.</desc>
    <defs></defs>
    <g id="Cart" stroke="none" stroke-width="1" fill="none" fill-rule="evenodd">
        <g id="404" transform="translate(-685.000000, -94.000000)" fill="#F62424">
            <g id="Group" transform="translate(470.000000, 94.000000)">
                <g id="warning" transform="translate(215.000000, 0.000000)">
                    <g id="Capa_1">
                        <path d="M69.3021472,55.251755 L38.9258691,2.36150092 C37.1651329,-0.703141109 32.756135,-0.703141109 30.9953988,2.36150092 L0.619120654,55.251755 C-1.14161554,58.316397 1.06288344,62.1579905 4.58435583,62.1579905 L65.3369121,62.1579905 C68.8583845,62.1579905 71.0628834,58.316397 69.3021472,55.251755 L69.3021472,55.251755 Z M35.0035787,18.6487065 C36.950409,18.6487065 38.5250511,20.2745494 38.4677914,22.2313162 L37.8951943,42.3169513 C37.8522495,43.8996303 36.5639059,45.1513855 34.9892638,45.1513855 C33.4146217,45.1513855 32.1262781,43.8852423 32.0833333,42.3169513 L31.5250511,22.2313162 C31.4821063,20.2745494 33.0424335,18.6487065 35.0035787,18.6487065 L35.0035787,18.6487065 Z M34.9606339,54.9783831 C32.9708589,54.9783831 31.353272,53.3525402 31.353272,51.3526095 C31.353272,49.3526788 32.9708589,47.7268358 34.9606339,47.7268358 C36.950409,47.7268358 38.5679959,49.3526788 38.5679959,51.3526095 C38.5679959,53.3525402 36.950409,54.9783831 34.9606339,54.9783831 L34.9606339,54.9783831 Z" id="Shape"></path>
                    </g>
                </g>
            </g>
        </g>
    </g>
</svg>